<?xml version="1.0" encoding="utf-8"?>
<!-- Generator: Adobe Illustrator 28.2.0, SVG Export Plug-In . SVG Version: 6.00 Build 0)  -->
<svg version="1.1" id="Layer_1" xmlns="http://www.w3.org/2000/svg" xmlns:xlink="http://www.w3.org/1999/xlink" x="0px" y="0px"
	 viewBox="0 0 4000 4000" style="enable-background:new 0 0 4000 4000;" xml:space="preserve">
<style type="text/css">
	.st0{fill:none;stroke:#B59410;stroke-width:42;stroke-miterlimit:10;}
	.st1{fill:#FBB324;stroke:#B59410;stroke-width:42;stroke-miterlimit:10;}
</style>
<path class="st0" d="M3080.63,2234.58H921.95c-29.6,0-53.6-24-53.6-53.6V920.94c0-29.6,24-53.6,53.6-53.6h2158.69
	c29.6,0,53.6,24,53.6,53.6v1260.04C3134.24,2210.58,3110.24,2234.58,3080.63,2234.58z"/>
<path class="st0" d="M2938.52,2108.11c-395.24,0-790.48,0-1185.72,0c-229.58,0-459.16,0-688.74,0c-3.77,0-23.8-0.38-39.99-16.57
	c-10.23-10.23-16.57-24.37-16.57-39.99V1050.36c0-31.24,25.32-56.56,56.56-56.56h1874.46c31.24,0,56.56,25.32,56.56,56.56v1001.19
	C2995.07,2082.79,2969.75,2108.11,2938.52,2108.11z"/>
<path class="st0" d="M2755.56,2234.59v102.86c0,32.1-26.73,58.14-59.63,58.14H1343.09c-6.26,0-12.32-0.89-18.09-2.68
	c-24.15-7.45-41.54-29.52-41.54-55.45v-102.86H2755.56z"/>
<path class="st0" d="M2020.17,50.19h-33.64c-17,0-30.77,22.23-30.77,49.61v441.14c13.76-1.28,31.44-0.89,54.8-0.3
	c17.8,0.49,30.77,1.48,40.31,2.77V99.8C2050.87,72.43,2037.11,50.19,2020.17,50.19z"/>
<path class="st0" d="M2080.58,546.75c30.41,2.48,40.05,6.16,47.6,9.64c40.05,18.58,63.11,51.38,74.93,71.95l71.65,239.01h-540.12
	l59.93-236.92c27.93-47.8,61.02-67.48,79.2-75.93c13.12-6.06,29.52-8.94,52.27-10.24"/>
<path class="st0" d="M1926.05,544.26c22.36-1.29,51.08-0.89,89.04-0.3c28.92,0.5,49.99,1.49,65.49,2.78"/>
<path class="st0" d="M1502.2,2398.37l-151.15,664.05c-4.37,19.48-18.29,34.29-35.58,40.25c-9.34,3.28-19.68,4.07-30.01,1.59
	l-71.35-16.99c-12.62-2.98-23.25-10.24-30.61-19.88v-0.1c-9.94-12.92-14.21-30.01-10.34-47.11l142.11-624.59
	c5.57,1.79,11.53,2.78,17.59,2.78L1502.2,2398.37z"/>
<path class="st0" d="M2110.69,2419.54v389.17c0,21.96-12.12,41.04-30.11,50.98c-8.35,4.57-17.89,7.16-28.03,7.16h-68.37
	c-9.44,0-18.38-2.19-26.24-6.26c-18.88-9.54-31.9-29.22-31.9-51.88v-389.17c0-8.55,1.89-16.7,5.17-23.95h174.31
	C2108.81,2402.84,2110.69,2410.99,2110.69,2419.54z"/>
<path class="st0" d="M1312.79,3107.44l-204.77,806.85c-5.71,22.36-27.68,35.68-49.08,29.71l-48.89-13.52
	c-21.4-5.96-34.14-28.92-28.53-51.28l204.96-807.05c7.04,9.64,17.21,16.89,29.29,19.88l68.29,16.99
	C1293.96,3111.51,1303.85,3110.72,1312.79,3107.44z"/>
<path class="st0" d="M2515.8,2401.17l151.15,664.05c4.37,19.48,18.29,34.29,35.58,40.25c9.34,3.28,19.68,4.07,30.01,1.59
	l71.35-16.99c12.62-2.98,23.25-10.24,30.61-19.88v-0.1c9.94-12.92,14.21-30.01,10.34-47.11l-142.11-624.59
	c-5.57,1.79-11.53,2.78-17.59,2.78L2515.8,2401.17z"/>
<path class="st0" d="M2708.04,3107.32l204.77,806.85c5.71,22.36,27.68,35.68,49.08,29.71l48.89-13.52
	c21.4-5.96,34.14-28.92,28.53-51.28l-204.96-807.05c-7.04,9.64-17.21,16.89-29.29,19.88l-68.29,16.99
	C2726.87,3111.39,2716.98,3110.6,2708.04,3107.32z"/>
<path class="st0" d="M2077.51,2859.68v766.41c0,23.85-18.55,43.23-41.47,43.23h-34.43c-22.83,0-41.47-19.38-41.47-43.23v-765.51
	c7.51,4.07,16.07,6.26,25.11,6.26h65.44C2060.39,2866.84,2069.52,2864.25,2077.51,2859.68z"/>
<path class="st0" d="M2716.06,1796.24c0.25-7.99,4.7-100.61,85.07-151.92c58.01-37.03,132.98-38.12,193.95-3.04"/>
<path class="st0" d="M1007.51,1604.82c178.59-81.02,357.17-162.04,535.76-243.07c113.43,75.96,226.86,151.92,340.29,227.87"/>
<path class="st0" d="M1710.37,1692.94c287.63-155.97,575.26-311.93,862.88-467.9c135.71,67.86,271.42,135.71,407.14,203.57"/>
<path class="st0" d="M1999.01,1334.41"/>
<path class="st0" d="M2153.97,1313.15"/>
<path class="st0" d="M2153.97,1313.15c9.01-0.02,243.08-0.58,252.13-0.6c0,0,5.79-0.01,5.8-0.01"/>
<path class="st0" d="M1007.51,1218.96c140.1,0,280.2,0,420.3,0"/>
<path class="st0" d="M1007.51,1337.45c83.38,0,166.77,0,250.15,0"/>
<rect x="1455.71" y="1218.96" class="st1" width="0.25" height="0.25"/>
<rect x="2122.57" y="1312.41" class="st1" width="0.25" height="0.25"/>
<path class="st0" d="M1748.35,2087.92c-20.76-52.84-1.36-113.22,45.57-143.56c45.33-29.3,105.86-23.81,145.84,13.67
	c-23.08-72.61-6.38-150.05,43.3-195.97c67.57-62.45,188.99-59.99,268.89,20.51c2.37-125.54,93.28-227.39,202.81-241.55
	c149.03-19.26,266.25,132.41,263.64,233.87c-0.17,6.6-0.87,13.74-2.34,21.34"/>
<path class="st0" d="M2860.88,337.84"/>
</svg>
